<?xml version="1.0" encoding="utf-8"?>
<!-- Generator: Adobe Illustrator 24.3.0, SVG Export Plug-In . SVG Version: 6.00 Build 0)  -->
<svg version="1.0" id="katman_1" xmlns="http://www.w3.org/2000/svg" xmlns:xlink="http://www.w3.org/1999/xlink" x="0px" y="0px"
	 viewBox="0 0 299.51 194.55" style="enable-background:new 0 0 299.51 194.55;" xml:space="preserve">
<style type="text/css">
	.st0{fill:#0070E0;}
	.st1{fill:#003087;}
	.st2{fill:#001C64;}
</style>
<desc>Created with Sketch.</desc>
<path class="st0" d="M265.84,83.17l-5.97,37.53c-0.08,0.52,0.27,1.01,0.79,1.1c0.05,0.01,0.11,0.01,0.16,0.01h7.07
	c0.52,0,0.96-0.37,1.04-0.88l5.97-37.53c0.08-0.52-0.27-1.01-0.79-1.1c-0.05-0.01-0.11-0.01-0.16-0.01h-7.07
	C266.36,82.28,265.91,82.65,265.84,83.17z M258.29,94.12h-6.71c-0.51-0.01-0.96,0.37-1.04,0.88l-0.22,1.38c0,0-5.21-5.65-14.43-1.83
	c-5.29,2.19-7.83,6.7-8.91,10.01c0,0-3.43,10.06,4.33,15.59c0,0,7.2,5.32,15.3-0.33l-0.14,0.88c-0.07,0.43,0.16,0.84,0.55,1.02
	c0.13,0.06,0.27,0.09,0.41,0.09h6.71c0.52,0.01,0.96-0.37,1.04-0.88l4.08-25.7c0.05-0.28-0.04-0.56-0.22-0.78
	C258.84,94.24,258.57,94.12,258.29,94.12L258.29,94.12z M248.42,108.33c-0.26,1.8-1.17,3.43-2.55,4.61
	c-1.39,1.18-3.16,1.81-4.98,1.79c-0.71,0.01-1.43-0.1-2.11-0.31c-2.9-0.92-4.55-3.68-4.07-6.68c0.26-1.8,1.17-3.43,2.56-4.61
	c1.39-1.18,3.16-1.82,4.98-1.8c0.71-0.01,1.43,0.1,2.11,0.31C247.26,102.57,248.9,105.33,248.42,108.33L248.42,108.33L248.42,108.33
	z M212.6,109.04c3.64,0,7.16-1.29,9.92-3.64c2.76-2.34,4.58-5.6,5.15-9.17c1.17-7.43-4.68-13.92-12.97-13.92h-13.36
	c-0.52,0-0.96,0.37-1.04,0.88l-5.98,37.53c-0.07,0.43,0.16,0.84,0.55,1.02c0.13,0.06,0.27,0.09,0.41,0.09h7.07
	c0.52,0,0.96-0.37,1.04-0.88l1.75-11.02c0.08-0.51,0.52-0.89,1.04-0.88L212.6,109.04L212.6,109.04z M218.51,95.89
	c-0.44,2.75-2.58,4.77-6.67,4.77h-5.24l1.59-10h5.14C217.57,90.67,218.95,93.15,218.51,95.89
	C218.51,95.89,218.51,95.89,218.51,95.89z"/>
<path class="st1" d="M186.26,94.76l-8.09,13.56l-4.11-13.46c-0.13-0.44-0.54-0.74-1-0.74h-7.3c-0.39-0.01-0.73,0.28-0.78,0.66
	c-0.02,0.12,0,0.25,0.04,0.37l7.36,22.67l-6.66,10.68c-0.23,0.36-0.13,0.83,0.23,1.06c0.01,0.01,0.02,0.02,0.04,0.02
	c0.12,0.07,0.26,0.11,0.4,0.1h7.87c0.46,0,0.88-0.24,1.12-0.63l20.55-33.75c0.15-0.24,0.16-0.54,0.02-0.79
	c-0.14-0.25-0.41-0.4-0.69-0.39h-7.86C186.92,94.13,186.5,94.37,186.26,94.76z M161.62,94.12h-6.71c-0.52,0-0.96,0.37-1.04,0.88
	l-0.22,1.38c0,0-5.21-5.65-14.44-1.83c-5.29,2.19-7.83,6.7-8.91,10.01c0,0-3.43,10.06,4.32,15.59c0,0,7.2,5.32,15.3-0.33l-0.14,0.88
	c-0.07,0.43,0.16,0.84,0.55,1.02c0.13,0.06,0.27,0.09,0.41,0.09h6.71c0.51,0,0.96-0.37,1.04-0.88l4.08-25.7
	c0.07-0.43-0.16-0.85-0.55-1.02C161.89,94.15,161.75,94.12,161.62,94.12L161.62,94.12z M151.74,108.33
	c-0.26,1.79-1.17,3.43-2.56,4.6c-1.39,1.18-3.16,1.82-4.98,1.8c-0.71,0.01-1.42-0.1-2.11-0.31c-2.89-0.92-4.55-3.68-4.07-6.68
	c0.26-1.8,1.18-3.44,2.57-4.61c1.39-1.18,3.17-1.81,4.99-1.79c0.71-0.01,1.43,0.1,2.11,0.31
	C150.59,102.57,152.23,105.33,151.74,108.33L151.74,108.33L151.74,108.33z M115.92,109.04c3.63,0,7.14-1.29,9.91-3.65
	c2.76-2.34,4.58-5.59,5.14-9.17c1.18-7.43-4.68-13.92-12.97-13.92h-13.36c-0.52-0.01-0.96,0.37-1.04,0.88l-5.96,37.52
	c-0.07,0.43,0.16,0.85,0.55,1.02c0.13,0.06,0.27,0.09,0.41,0.09h7.07c0.52,0,0.96-0.37,1.04-0.88l1.75-11.02
	c0.08-0.51,0.52-0.89,1.04-0.88L115.92,109.04L115.92,109.04z M121.84,95.89c-0.44,2.75-2.58,4.77-6.67,4.77h-5.24l1.59-10h5.14
	C120.9,90.67,122.28,93.15,121.84,95.89C121.84,95.89,121.84,95.89,121.84,95.89z"/>
<path class="st2" d="M70.22,84.23c0.16-8.29-6.68-14.65-16.08-14.65H34.7c-0.94,0-1.73,0.68-1.88,1.61l-7.79,48.68
	c-0.13,0.84,0.44,1.63,1.29,1.77c0.08,0.01,0.16,0.02,0.24,0.02h11.52l-1.8,11.27c-0.13,0.84,0.44,1.63,1.29,1.77
	c0.08,0.01,0.16,0.02,0.24,0.02h9.38c0.45,0,0.86-0.16,1.2-0.46c0.34-0.29,0.4-0.7,0.47-1.15l2.75-16.21
	c0.07-0.45,0.3-1.03,0.64-1.32c0.34-0.29,0.64-0.46,1.1-0.46h5.74c9.21,0,17.02-6.54,18.44-15.65
	C78.55,93.02,75.78,87.14,70.22,84.23L70.22,84.23z"/>
<path class="st0" d="M40.56,103.7L37.7,121.9l-1.8,11.41c-0.13,0.84,0.44,1.63,1.29,1.77c0.08,0.01,0.16,0.02,0.24,0.02h9.93
	c0.94,0,1.73-0.68,1.88-1.61l2.62-16.59c0.15-0.92,0.94-1.6,1.88-1.61h5.85c9.21,0,17.02-6.72,18.45-15.82
	c1.01-6.46-2.24-12.34-7.8-15.25c-0.01,0.69-0.07,1.37-0.18,2.05c-1.43,9.1-9.24,15.82-18.44,15.82h-9.15
	C41.51,102.1,40.71,102.78,40.56,103.7"/>
<path class="st1" d="M37.69,121.9H26.14c-0.85,0-1.54-0.69-1.54-1.54c0-0.08,0.01-0.16,0.02-0.24l7.79-49.4
	c0.15-0.92,0.94-1.6,1.88-1.61h19.86c9.4,0,16.24,6.84,16.08,15.13c-2.34-1.23-5.09-1.93-8.1-1.93H45.56
	c-0.94,0-1.73,0.68-1.88,1.61l-3.12,19.8L37.69,121.9L37.69,121.9z"/>
</svg>
